# xmcd CD database file
#
# Track frame offsets:
#	150
#	27070
#	61655
#	87570
#	119597
#	135580
#	156040
#	172550
#	201845
#	222950
#	255090
#
# Disc length: 3716 seconds
#
# Revision: 2
# Processed by: cddbd v1.5.1PL0 Copyright (c) Steve Scherf et al.
# Submitted via: CDex 1.51
#
DISCID=860e820b
DTITLE=Aron Burton  - Good blues to you
DYEAR=1900
DGENRE=Blues
TTITLE0=no more doggin'
TTITLE1=you've been gone too long
TTITLE2=good blues to you
TTITLE3=stuck in chicago
TTITLE4=good idea at the time
TTITLE5=i'll play the blues for you
TTITLE6=too late to apologize
TTITLE7=marryin' game
TTITLE8=southbound train
TTITLE9=the woman i met out in the rain
TTITLE10=next time you see me
EXTD=
EXTT0=
EXTT1=
EXTT2=
EXTT3=
EXTT4=
EXTT5=
EXTT6=
EXTT7=
EXTT8=
EXTT9=
EXTT10=
PLAYORDER=
